<?xml version="1.0" standalone="no"?>
<!DOCTYPE svg PUBLIC "-//W3C//DTD SVG 20010904//EN"
 "http://www.w3.org/TR/2001/REC-SVG-20010904/DTD/svg10.dtd">
<svg version="1.0" xmlns="http://www.w3.org/2000/svg"
 width="512.000000pt" height="512.000000pt" viewBox="0 0 512.000000 512.000000"
 preserveAspectRatio="xMidYMid meet">
<metadata>
Created by potrace 1.14, written by Peter Selinger 2001-2017
</metadata>
<g transform="translate(0.000000,512.000000) scale(0.100000,-0.100000)"
fill="#000000" stroke="none">
<path d="M2689 4706 c-2 -2 -58 -7 -124 -11 -66 -4 -133 -8 -150 -10 -16 -2
-59 -7 -95 -10 -36 -3 -114 -13 -175 -21 -60 -8 -126 -17 -146 -19 -20 -2 -92
-14 -160 -26 -68 -12 -134 -23 -146 -24 -11 -2 -30 -6 -41 -9 -25 -8 -59 -16
-93 -21 -70 -10 -332 -82 -477 -130 -204 -68 -326 -121 -467 -203 -132 -76
-209 -134 -293 -220 -56 -59 -130 -164 -136 -195 -1 -7 -9 -28 -18 -47 -21
-50 -48 -161 -64 -262 -2 -16 -6 -43 -9 -60 -23 -157 -23 -527 0 -728 3 -19 7
-60 10 -90 3 -30 8 -68 11 -85 2 -16 6 -46 9 -65 34 -276 169 -798 262 -1020
3 -8 5 -20 4 -26 -3 -25 171 -395 190 -402 5 -2 9 -8 9 -13 0 -11 64 -111 83
-131 8 -7 16 -18 18 -25 5 -15 97 -120 134 -154 75 -69 101 -89 113 -89 6 0
12 -4 12 -9 0 -5 10 -13 22 -17 12 -3 28 -13 36 -20 7 -8 18 -12 23 -9 5 4 9
1 9 -4 0 -6 3 -10 8 -9 4 1 18 -3 32 -9 14 -6 28 -10 31 -9 3 0 12 -4 20 -11
12 -9 46 -21 117 -40 6 -2 18 -5 25 -6 55 -16 91 -23 152 -32 17 -2 50 -8 75
-12 25 -4 137 -8 250 -7 241 0 333 8 550 45 63 11 124 21 135 23 49 8 193 38
221 47 17 5 40 11 50 13 198 41 585 169 879 291 426 177 968 480 1189 665 54
46 135 132 141 151 4 11 10 19 14 19 4 0 14 17 23 37 35 80 47 113 42 113 -3
0 0 8 5 18 5 10 12 38 16 62 4 25 8 47 10 50 16 25 22 272 11 420 -14 190 -40
342 -92 539 -52 197 -146 448 -211 561 l-20 35 -268 -2 c-147 -1 -278 -6 -289
-11 -100 -45 -126 -59 -164 -84 -24 -15 -47 -28 -53 -28 -5 0 -9 -4 -9 -10 0
-5 -6 -10 -14 -10 -8 0 -16 -7 -20 -15 -3 -8 -10 -15 -16 -15 -11 0 -70 -43
-117 -85 l-22 -20 29 -60 c31 -63 62 -133 66 -150 1 -5 9 -27 18 -47 9 -21 17
-41 17 -45 1 -5 6 -17 12 -28 6 -11 12 -24 13 -30 1 -5 14 -41 29 -80 15 -38
28 -74 30 -80 10 -43 19 -72 26 -80 4 -5 8 -13 8 -17 1 -5 1 -9 2 -10 0 -2 2
-10 4 -18 7 -29 37 -135 43 -150 8 -22 10 -32 17 -62 3 -15 10 -39 15 -53 5
-14 7 -25 5 -25 -2 0 0 -11 5 -26 6 -14 12 -39 15 -57 3 -18 13 -61 21 -97 12
-53 13 -72 3 -102 -7 -21 -16 -38 -21 -38 -5 0 -6 -4 -3 -10 3 -5 2 -10 -4
-10 -5 0 -13 -9 -16 -20 -8 -26 -70 -118 -102 -152 -63 -66 -275 -137 -603
-202 -140 -28 -317 -58 -340 -58 -8 0 -35 -4 -60 -8 -25 -5 -73 -11 -108 -15
-35 -3 -72 -8 -83 -10 -11 -2 -48 -7 -82 -10 -34 -3 -78 -8 -97 -10 -100 -11
-151 -16 -205 -20 -33 -3 -81 -7 -107 -10 -45 -4 -48 -2 -90 44 -24 27 -50 58
-58 71 -8 12 -23 31 -32 42 -10 11 -20 29 -23 39 -4 11 -11 19 -16 19 -6 0 -7
5 -4 10 3 6 2 10 -2 10 -5 0 -16 15 -25 33 -8 17 -32 65 -52 104 -20 40 -36
75 -36 78 0 3 -7 20 -17 38 -9 17 -18 34 -18 37 -2 5 -14 37 -38 95 -6 17 -12
32 -13 35 0 3 -3 12 -7 20 -8 22 -69 202 -72 215 -5 23 -17 71 -21 85 -3 8 -6
17 -6 20 0 3 -4 15 -9 28 -5 12 -11 33 -13 45 -2 12 -12 50 -21 84 -9 35 -18
71 -20 80 -2 10 -13 61 -25 113 -11 52 -23 106 -25 120 -3 14 -7 36 -10 50
-23 98 -28 191 -14 225 7 17 13 32 13 35 2 5 35 57 51 78 76 101 281 223 510
301 50 18 97 34 105 38 8 3 20 7 25 9 6 1 58 16 117 32 184 53 554 129 753
157 22 3 69 10 105 15 36 6 85 12 110 15 25 3 65 8 90 11 25 3 56 7 70 9 14 2
59 6 100 10 41 4 86 8 100 10 36 5 154 15 230 20 292 19 414 25 610 30 85 2
161 4 168 5 8 0 3 14 -13 40 -14 22 -23 40 -20 40 3 0 -5 17 -18 38 -13 20
-32 54 -42 75 -9 20 -21 37 -26 37 -5 0 -9 6 -9 13 0 7 -9 23 -20 35 -11 12
-20 26 -20 31 0 15 -172 191 -187 191 -7 0 -13 4 -13 8 0 29 -326 153 -437
167 -11 2 -30 6 -41 9 -11 4 -35 9 -53 11 -19 3 -45 7 -59 10 -14 3 -45 8 -70
11 -25 3 -56 7 -70 10 -14 2 -59 6 -100 10 -41 3 -86 8 -100 11 -29 6 -785 15
-791 9z"/>
<path d="M2226 3029 c-30 -9 -75 -28 -99 -42 -48 -28 -139 -125 -131 -139 3
-4 1 -8 -4 -8 -8 0 -13 -11 -27 -62 -2 -5 -3 -9 -5 -10 -6 -8 -10 -51 -11
-108 -1 -105 44 -205 126 -278 26 -23 53 -42 61 -42 8 0 14 -4 14 -9 0 -15
120 -43 184 -42 61 0 115 14 177 47 41 21 139 119 139 139 0 8 4 15 9 15 5 0
12 12 16 28 5 15 9 32 11 37 41 142 2 284 -108 387 -33 32 -64 55 -69 52 -5
-3 -9 -1 -9 4 0 8 -11 13 -62 27 -5 2 -9 3 -10 5 -22 17 -147 16 -202 -1z"/>
<path d="M3170 3038 c-71 -11 -148 -49 -197 -96 -50 -50 -73 -79 -66 -86 4 -3
1 -6 -5 -6 -9 0 -21 -22 -27 -50 -1 -3 -6 -23 -13 -44 -20 -68 -9 -175 25
-247 64 -137 192 -219 341 -220 287 -1 466 299 333 559 -44 86 -159 171 -251
186 -71 12 -86 12 -140 4z"/>
</g>
</svg>
